<svg width="40" height="40" viewBox="0 0 40 40" fill="none" xmlns="http://www.w3.org/2000/svg">
<rect width="40" height="40" rx="20" fill="url(#paint0_linear_930_908)"/>
<path d="M28.3334 19.9993C28.3334 15.3993 24.6001 11.666 20.0001 11.666C15.4001 11.666 11.6667 15.3993 11.6667 19.9993C11.6667 24.0327 14.5334 27.391 18.3334 28.166V22.4993H16.6667V19.9993H18.3334V17.916C18.3334 16.3077 19.6417 14.9993 21.2501 14.9993H23.3334V17.4993H21.6667C21.2084 17.4993 20.8334 17.8743 20.8334 18.3327V19.9993H23.3334V22.4993H20.8334V28.291C25.0417 27.8743 28.3334 24.3243 28.3334 19.9993Z" fill="white"/>
<defs>
<linearGradient id="paint0_linear_930_908" x1="-0.851066" y1="42.7273" x2="28.8632" y2="49.8701" gradientUnits="userSpaceOnUse">
<stop stop-color="#3A3EF5"/>
<stop offset="1" stop-color="#32C8F1"/>
</linearGradient>
</defs>
</svg>
