<svg width="40" height="40" viewBox="0 0 40 40" fill="none" xmlns="http://www.w3.org/2000/svg">
<rect width="40" height="40" rx="20" fill="url(#paint0_linear_930_905)"/>
<path d="M20.8567 11.666C21.7942 11.6685 22.2701 11.6735 22.6809 11.6852L22.8426 11.691C23.0292 11.6977 23.2134 11.706 23.4359 11.716C24.3226 11.7577 24.9276 11.8977 25.4584 12.1035C26.0084 12.3152 26.4717 12.6018 26.9351 13.0643C27.359 13.4808 27.6869 13.9847 27.8959 14.541C28.1017 15.0718 28.2417 15.6768 28.2834 16.5643C28.2934 16.786 28.3017 16.9702 28.3084 17.1577L28.3134 17.3193C28.3259 17.7293 28.3309 18.2052 28.3326 19.1427L28.3334 19.7643V20.856C28.3354 21.4639 28.329 22.0717 28.3142 22.6793L28.3092 22.841C28.3026 23.0285 28.2942 23.2127 28.2842 23.4343C28.2426 24.3218 28.1009 24.926 27.8959 25.4577C27.6869 26.014 27.359 26.5179 26.9351 26.9343C26.5186 27.3583 26.0147 27.6862 25.4584 27.8952C24.9276 28.101 24.3226 28.241 23.4359 28.2827L22.8426 28.3077L22.6809 28.3127C22.2701 28.3243 21.7942 28.3302 20.8567 28.3318L20.2351 28.3327H19.1442C18.5361 28.3348 17.928 28.3284 17.3201 28.3135L17.1584 28.3085C16.9606 28.301 16.7628 28.2924 16.5651 28.2827C15.6784 28.241 15.0734 28.101 14.5417 27.8952C13.9858 27.6861 13.4821 27.3582 13.0659 26.9343C12.6417 26.518 12.3135 26.014 12.1042 25.4577C11.8984 24.9268 11.7584 24.3218 11.7167 23.4343L11.6917 22.841L11.6876 22.6793C11.6722 22.0717 11.6653 21.4639 11.6667 20.856V19.1427C11.6644 18.5348 11.6705 17.927 11.6851 17.3193L11.6909 17.1577C11.6976 16.9702 11.7059 16.786 11.7159 16.5643C11.7576 15.6768 11.8976 15.0727 12.1034 14.541C12.3131 13.9845 12.6419 13.4805 13.0667 13.0643C13.4827 12.6406 13.9861 12.3127 14.5417 12.1035C15.0734 11.8977 15.6776 11.7577 16.5651 11.716C16.7867 11.706 16.9717 11.6977 17.1584 11.691L17.3201 11.686C17.9277 11.6712 18.5356 11.6648 19.1434 11.6668L20.8567 11.666ZM20.0001 15.8327C18.895 15.8327 17.8352 16.2717 17.0538 17.0531C16.2724 17.8345 15.8334 18.8943 15.8334 19.9993C15.8334 21.1044 16.2724 22.1642 17.0538 22.9456C17.8352 23.727 18.895 24.166 20.0001 24.166C21.1051 24.166 22.1649 23.727 22.9463 22.9456C23.7277 22.1642 24.1667 21.1044 24.1667 19.9993C24.1667 18.8943 23.7277 17.8345 22.9463 17.0531C22.1649 16.2717 21.1051 15.8327 20.0001 15.8327ZM20.0001 17.4993C20.3284 17.4993 20.6535 17.5639 20.9568 17.6895C21.2601 17.8151 21.5358 17.9992 21.768 18.2313C22.0001 18.4634 22.1843 18.739 22.31 19.0423C22.4357 19.3455 22.5004 19.6706 22.5005 19.9989C22.5005 20.3272 22.4359 20.6523 22.3103 20.9557C22.1848 21.259 22.0007 21.5346 21.7685 21.7668C21.5364 21.999 21.2609 22.1832 20.9576 22.3089C20.6543 22.4346 20.3292 22.4993 20.0009 22.4993C19.3379 22.4993 18.702 22.236 18.2331 21.7671C17.7643 21.2983 17.5009 20.6624 17.5009 19.9993C17.5009 19.3363 17.7643 18.7004 18.2331 18.2316C18.702 17.7627 19.3379 17.4993 20.0009 17.4993M24.3759 14.5827C24.0996 14.5827 23.8347 14.6924 23.6393 14.8878C23.444 15.0831 23.3342 15.3481 23.3342 15.6243C23.3342 15.9006 23.444 16.1656 23.6393 16.3609C23.8347 16.5563 24.0996 16.666 24.3759 16.666C24.6522 16.666 24.9171 16.5563 25.1125 16.3609C25.3078 16.1656 25.4176 15.9006 25.4176 15.6243C25.4176 15.3481 25.3078 15.0831 25.1125 14.8878C24.9171 14.6924 24.6522 14.5827 24.3759 14.5827Z" fill="white"/>
<defs>
<linearGradient id="paint0_linear_930_905" x1="-0.851066" y1="42.7273" x2="28.8632" y2="49.8701" gradientUnits="userSpaceOnUse">
<stop stop-color="#3A3EF5"/>
<stop offset="1" stop-color="#32C8F1"/>
</linearGradient>
</defs>
</svg>
