<svg width="40" height="40" viewBox="0 0 40 40" fill="none" xmlns="http://www.w3.org/2000/svg">
<g clip-path="url(#clip0_930_900)">
<rect width="40" height="40" rx="20" fill="url(#paint0_linear_930_900)"/>
<path d="M15.3905 14.1675C15.3902 14.6095 15.2144 15.0334 14.9017 15.3458C14.589 15.6582 14.165 15.8336 13.723 15.8333C13.2809 15.8331 12.8571 15.6573 12.5447 15.3446C12.2323 15.0319 12.0569 14.6079 12.0571 14.1658C12.0574 13.7238 12.2332 13.3 12.5459 12.9876C12.8586 12.6752 13.2826 12.4998 13.7246 12.5C14.1667 12.5002 14.5905 12.676 14.9029 12.9887C15.2153 13.3015 15.3907 13.7255 15.3905 14.1675ZM15.4405 17.0675H12.1071V27.5008H15.4405V17.0675ZM20.7071 17.0675H17.3905V27.5008H20.6738V22.0258C20.6738 18.9758 24.6488 18.6925 24.6488 22.0258V27.5008H27.9405V20.8925C27.9405 15.7508 22.0571 15.9425 20.6738 18.4675L20.7071 17.0675Z" fill="white"/>
</g>
<defs>
<linearGradient id="paint0_linear_930_900" x1="-0.851066" y1="42.7273" x2="28.8632" y2="49.8701" gradientUnits="userSpaceOnUse">
<stop stop-color="#3A3EF5"/>
<stop offset="1" stop-color="#32C8F1"/>
</linearGradient>
<clipPath id="clip0_930_900">
<rect width="40" height="40" rx="20" fill="white"/>
</clipPath>
</defs>
</svg>
